<svg width="20" height="20" viewBox="0 0 20 20" fill="none" xmlns="http://www.w3.org/2000/svg">
<path d="M9.9987 0.833984C4.9387 0.833984 0.832031 4.94065 0.832031 10.0007C0.832031 15.0607 4.9387 19.1673 9.9987 19.1673C15.0587 19.1673 19.1654 15.0607 19.1654 10.0007C19.1654 4.94065 15.0587 0.833984 9.9987 0.833984ZM9.9987 17.334C5.9562 17.334 2.66536 14.0431 2.66536 10.0007C2.66536 5.95815 5.9562 2.66732 9.9987 2.66732C14.0412 2.66732 17.332 5.95815 17.332 10.0007C17.332 14.0431 14.0412 17.334 9.9987 17.334ZM14.2062 5.94898L8.16536 11.9898L5.7912 9.62482L4.4987 10.9173L8.16536 14.584L15.4987 7.25065L14.2062 5.94898Z" fill="#1B5E20"/>
</svg>
